<?xml version="1.0" encoding="UTF-8" standalone="no"?>
<!-- Generator: Adobe Illustrator 15.0.0, SVG Export Plug-In . SVG Version: 6.00 Build 0)  -->

<svg
   xmlns:dc="http://purl.org/dc/elements/1.1/"
   xmlns:cc="http://creativecommons.org/ns#"
   xmlns:rdf="http://www.w3.org/1999/02/22-rdf-syntax-ns#"
   xmlns:svg="http://www.w3.org/2000/svg"
   xmlns="http://www.w3.org/2000/svg"
   xmlns:sodipodi="http://sodipodi.sourceforge.net/DTD/sodipodi-0.dtd"
   xmlns:inkscape="http://www.inkscape.org/namespaces/inkscape"
   version="1.1"
   id="Ebene_1"
   x="0px"
   y="0px"
   width="169.8799"
   height="67.135002"
   viewBox="0 0 169.87989 67.134999"
   enable-background="new 0 0 841.89 595.28"
   xml:space="preserve"
   inkscape:version="0.48.4 r9939"
   sodipodi:docname="logo.svg"><metadata
   id="metadata69"><rdf:RDF><cc:Work
       rdf:about=""><dc:format>image/svg+xml</dc:format><dc:type
         rdf:resource="http://purl.org/dc/dcmitype/StillImage" /></cc:Work></rdf:RDF></metadata><defs
   id="defs67" /><sodipodi:namedview
   pagecolor="#ffffff"
   bordercolor="#666666"
   borderopacity="1"
   objecttolerance="10"
   gridtolerance="10"
   guidetolerance="10"
   inkscape:pageopacity="0"
   inkscape:pageshadow="2"
   inkscape:window-width="666"
   inkscape:window-height="604"
   id="namedview65"
   showgrid="false"
   fit-margin-top="0"
   fit-margin-left="0"
   fit-margin-right="0"
   fit-margin-bottom="0"
   inkscape:zoom="2"
   inkscape:cx="104.62281"
   inkscape:cy="78.477865"
   inkscape:window-x="72"
   inkscape:window-y="22"
   inkscape:window-maximized="0"
   inkscape:current-layer="Ebene_1" />
<g
   id="g3"
   transform="matrix(1.0718448,0,0,1.0718448,-366.21507,-285.37868)">
	<path
   d="m 410.758,306.076 -4.622,-7.953 v 7.953 h -3.133 V 290.85 h 3.133 v 6.945 l 4.337,-6.945 h 3.769 l -4.864,7.054 5.412,8.172 h -4.032 z"
   id="path5"
   inkscape:connector-curvature="0"
   style="fill:#4d4d4d" />
	<path
   d="m 421.471,297.422 c -0.285,-0.153 -0.525,-0.219 -0.854,-0.219 -0.658,0 -1.249,0.307 -1.797,0.942 v 7.931 h -2.936 v -7.493 c 0,-1.512 -0.176,-2.65 -0.417,-3.286 l 2.629,-0.701 c 0.264,0.46 0.417,0.964 0.46,1.6 0.636,-0.854 1.534,-1.6 2.629,-1.6 0.438,0 0.636,0.044 1.096,0.241 l -0.81,2.585 z"
   id="path7"
   inkscape:connector-curvature="0"
   style="fill:#4d4d4d" />
	<path
   d="m 425.677,301.388 v 0.087 c 0,1.73 0.854,2.717 2.366,2.717 1.008,0 1.949,-0.372 2.848,-1.117 l 1.14,1.753 c -1.293,1.052 -2.651,1.556 -4.229,1.556 -3.22,0 -5.302,-2.279 -5.302,-5.806 0,-2.016 0.416,-3.352 1.402,-4.447 0.92,-1.03 2.037,-1.511 3.527,-1.511 1.292,0 2.52,0.438 3.242,1.183 1.029,1.052 1.489,2.563 1.489,4.908 v 0.679 h -6.483 z m 3.439,-2.279 c 0,-0.833 -0.088,-1.271 -0.351,-1.687 -0.285,-0.438 -0.701,-0.657 -1.292,-0.657 -1.118,0 -1.753,0.876 -1.753,2.432 v 0.043 h 3.396 v -0.131 z"
   id="path9"
   inkscape:connector-curvature="0"
   style="fill:#4d4d4d" />
	<path
   d="m 441.625,306.646 c -0.679,-0.284 -1.292,-0.788 -1.577,-1.358 -0.219,0.219 -0.459,0.438 -0.679,0.592 -0.548,0.395 -1.337,0.613 -2.256,0.613 -2.498,0 -3.855,-1.271 -3.855,-3.506 0,-2.629 1.817,-3.855 5.389,-3.855 0.219,0 0.416,0 0.657,0.022 v -0.46 c 0,-1.249 -0.241,-1.665 -1.314,-1.665 -0.942,0 -2.037,0.46 -3.242,1.271 l -1.249,-2.103 c 0.592,-0.373 1.029,-0.592 1.818,-0.92 1.095,-0.459 2.038,-0.657 3.066,-0.657 1.885,0 3.178,0.701 3.615,1.949 0.153,0.46 0.219,0.811 0.197,2.016 l -0.066,3.768 c -0.021,1.227 0.066,1.752 1.053,2.498 l -1.557,1.795 z m -2.497,-5.478 c -2.037,0 -2.738,0.373 -2.738,1.709 0,0.877 0.548,1.469 1.293,1.469 0.548,0 1.095,-0.285 1.533,-0.768 l 0.044,-2.41 h -0.132 z"
   id="path11"
   inkscape:connector-curvature="0"
   style="fill:#4d4d4d" />
	<path
   d="m 448.46,306.339 c -1.489,0 -2.672,-0.657 -3.022,-1.644 -0.175,-0.482 -0.197,-0.701 -0.197,-1.73 v -6.09 h -1.117 v -2.015 h 1.117 c 0,-1.095 0,-1.818 0.109,-2.651 l 2.979,-0.745 c -0.109,1.029 -0.175,2.256 -0.175,3.396 h 2.629 l -0.745,2.015 h -1.884 v 5.63 c 0,1.425 0.263,1.796 1.271,1.796 0.263,0 0.525,-0.064 1.052,-0.219 l 0.372,1.753 c -0.855,0.351 -1.621,0.504 -2.389,0.504 z"
   id="path13"
   inkscape:connector-curvature="0"
   style="fill:#4d4d4d" />
	<path
   d="m 454.179,293.588 c -0.986,0 -1.796,-0.811 -1.796,-1.818 0,-1.008 0.832,-1.818 1.84,-1.818 0.985,0 1.774,0.811 1.774,1.818 0,1.008 -0.81,1.818 -1.818,1.818 z m -1.468,12.488 v -11.02 l 2.936,-0.46 v 11.48 h -2.936 z"
   id="path15"
   inkscape:connector-curvature="0"
   style="fill:#4d4d4d" />
	<path
   d="m 463.467,306.076 h -2.431 l -4.075,-11.042 3.002,-0.373 1.62,5.061 c 0.241,0.744 0.57,1.972 0.724,2.694 0.087,-0.657 0.328,-1.73 0.679,-2.848 l 1.512,-4.71 h 3.066 l -4.097,11.218 z"
   id="path17"
   inkscape:connector-curvature="0"
   style="fill:#4d4d4d" />
	<path
   d="m 470.128,293.588 c -0.986,0 -1.797,-0.811 -1.797,-1.818 0,-1.008 0.832,-1.818 1.84,-1.818 0.985,0 1.774,0.811 1.774,1.818 0,1.008 -0.81,1.818 -1.817,1.818 z m -1.469,12.488 v -11.02 l 2.937,-0.46 v 11.48 h -2.937 z"
   id="path19"
   inkscape:connector-curvature="0"
   style="fill:#4d4d4d" />
	<path
   d="m 477.882,306.339 c -1.489,0 -2.672,-0.657 -3.022,-1.644 -0.176,-0.482 -0.198,-0.701 -0.198,-1.73 v -6.09 h -1.117 v -2.015 h 1.117 c 0,-1.095 0,-1.818 0.109,-2.651 l 2.979,-0.745 c -0.109,1.029 -0.175,2.256 -0.175,3.396 h 2.629 l -0.745,2.015 h -1.884 v 5.63 c 0,1.425 0.264,1.796 1.271,1.796 0.263,0 0.525,-0.064 1.052,-0.219 l 0.372,1.753 c -0.854,0.351 -1.622,0.504 -2.388,0.504 z"
   id="path21"
   inkscape:connector-curvature="0"
   style="fill:#4d4d4d" />
	<path
   d="m 489.734,306.646 c -0.68,-0.284 -1.293,-0.788 -1.578,-1.358 -0.416,0.395 -0.46,0.438 -0.679,0.592 -0.548,0.395 -1.336,0.613 -2.257,0.613 -2.497,0 -3.855,-1.271 -3.855,-3.506 0,-2.629 1.818,-3.855 5.39,-3.855 0.219,0 0.351,0 0.657,0.022 v -0.46 c 0,-1.249 -0.241,-1.665 -1.314,-1.665 -0.941,0 -2.038,0.46 -3.242,1.271 l -1.249,-2.103 c 0.723,-0.46 1.029,-0.592 1.818,-0.92 1.096,-0.438 2.037,-0.657 3.067,-0.657 1.884,0 3.176,0.701 3.614,1.949 0.153,0.46 0.219,0.811 0.197,2.016 l -0.065,3.768 c -0.022,1.184 0.065,1.752 1.051,2.498 l -1.555,1.795 z m -6.003,-12.729 c -0.941,0 -1.73,-0.789 -1.73,-1.753 0,-0.964 0.811,-1.752 1.774,-1.752 0.941,0 1.709,0.788 1.709,1.752 0,0.965 -0.789,1.753 -1.753,1.753 z m 3.505,7.251 c -2.037,0 -2.738,0.373 -2.738,1.709 0,0.877 0.548,1.469 1.293,1.469 0.547,0 1.096,-0.285 1.533,-0.768 l 0.044,-2.41 h -0.132 z m 1.118,-7.251 c -0.963,0 -1.73,-0.789 -1.73,-1.753 0,-0.964 0.789,-1.752 1.774,-1.752 0.942,0 1.709,0.788 1.709,1.752 -0.001,0.965 -0.79,1.753 -1.753,1.753 z"
   id="path23"
   inkscape:connector-curvature="0"
   style="fill:#4d4d4d" />
	<path
   d="m 496.569,306.339 c -1.489,0 -2.673,-0.657 -3.023,-1.644 -0.175,-0.482 -0.197,-0.701 -0.197,-1.73 v -6.09 h -1.117 v -2.015 h 1.117 c 0,-1.095 0,-1.818 0.11,-2.651 l 2.979,-0.745 c -0.11,1.029 -0.176,2.256 -0.176,3.396 h 2.629 l -0.745,2.015 h -1.884 v 5.63 c 0,1.425 0.263,1.796 1.271,1.796 0.264,0 0.525,-0.064 1.052,-0.219 l 0.372,1.753 c -0.854,0.351 -1.621,0.504 -2.388,0.504 z"
   id="path25"
   inkscape:connector-curvature="0"
   style="fill:#4d4d4d" />
	<path
   d="m 387.098,328.84 c -1.489,0 -2.672,-0.657 -3.022,-1.643 -0.176,-0.482 -0.197,-0.701 -0.197,-1.73 v -6.091 h -1.117 v -2.015 h 1.117 c 0,-1.096 0,-1.818 0.109,-2.651 l 2.979,-0.745 c -0.109,1.029 -0.176,2.257 -0.176,3.396 h 2.629 l -0.745,2.015 h -1.884 v 5.63 c 0,1.424 0.264,1.797 1.271,1.797 0.264,0 0.526,-0.066 1.052,-0.219 l 0.372,1.752 c -0.854,0.351 -1.622,0.504 -2.388,0.504 z"
   id="path27"
   inkscape:connector-curvature="0"
   style="fill:#858585" />
	<path
   d="m 396.935,319.924 c -0.285,-0.153 -0.525,-0.219 -0.854,-0.219 -0.657,0 -1.248,0.307 -1.796,0.941 v 7.931 h -2.937 v -7.492 c 0,-1.512 -0.175,-2.651 -0.416,-3.286 l 2.629,-0.701 c 0.263,0.461 0.417,0.964 0.46,1.6 0.636,-0.854 1.534,-1.6 2.629,-1.6 0.438,0 0.636,0.044 1.096,0.241 l -0.811,2.585 z"
   id="path29"
   inkscape:connector-curvature="0"
   style="fill:#858585" />
	<path
   d="m 400.418,316.09 c -0.986,0 -1.797,-0.811 -1.797,-1.818 0,-1.007 0.832,-1.818 1.84,-1.818 0.985,0 1.774,0.811 1.774,1.818 0,1.007 -0.81,1.818 -1.817,1.818 z m -1.469,12.487 v -11.019 l 2.937,-0.461 v 11.479 h -2.937 z"
   id="path31"
   inkscape:connector-curvature="0"
   style="fill:#858585" />
	<path
   d="m 410.232,314.863 c -0.636,-0.307 -0.855,-0.373 -1.206,-0.373 -0.744,0 -1.227,0.461 -1.227,1.271 v 1.6 h 2.848 l -0.744,2.015 h -2.081 v 9.201 h -2.87 v -9.201 h -1.008 v -2.015 h 1.073 c -0.065,-0.461 -0.109,-1.03 -0.109,-1.534 0,-2.212 1.314,-3.483 3.614,-3.483 0.965,0 1.753,0.197 2.651,0.701 l -0.941,1.818 z"
   id="path33"
   inkscape:connector-curvature="0"
   style="fill:#858585" />
	<path
   d="m 416.892,314.863 c -0.636,-0.307 -0.854,-0.373 -1.205,-0.373 -0.744,0 -1.227,0.461 -1.227,1.271 v 1.6 h 2.848 l -0.744,2.015 h -2.082 v 9.201 h -2.87 v -9.201 h -1.007 v -2.015 h 1.073 c -0.066,-0.461 -0.109,-1.03 -0.109,-1.534 0,-2.212 1.313,-3.483 3.614,-3.483 0.964,0 1.753,0.197 2.65,0.701 l -0.941,1.818 z"
   id="path35"
   inkscape:connector-curvature="0"
   style="fill:#858585" />
	<path
   d="m 421.601,328.84 c -1.489,0 -2.672,-0.657 -3.022,-1.643 -0.175,-0.482 -0.197,-0.701 -0.197,-1.73 v -6.091 h -1.117 v -2.015 h 1.117 c 0,-1.096 0,-1.818 0.109,-2.651 l 2.979,-0.745 c -0.109,1.029 -0.175,2.257 -0.175,3.396 h 2.628 l -0.745,2.015 h -1.883 v 5.63 c 0,1.424 0.263,1.797 1.27,1.797 0.264,0 0.526,-0.066 1.053,-0.219 l 0.372,1.752 c -0.855,0.351 -1.622,0.504 -2.389,0.504 z"
   id="path37"
   inkscape:connector-curvature="0"
   style="fill:#858585" />
	<path
   d="m 439.281,315.893 h -3.638 v 12.685 h -3.11 v -12.685 h -3.725 v -2.541 h 10.976 l -0.503,2.541 z"
   id="path39"
   inkscape:connector-curvature="0"
   style="fill:#4d4d4d" />
	<path
   d="m 441.646,323.889 v 0.088 c 0,1.73 0.855,2.717 2.366,2.717 1.008,0 1.95,-0.373 2.849,-1.117 l 1.139,1.752 c -1.292,1.052 -2.65,1.556 -4.228,1.556 -3.221,0 -5.302,-2.278 -5.302,-5.806 0,-2.016 0.416,-3.352 1.402,-4.447 0.92,-1.029 2.037,-1.512 3.526,-1.512 1.293,0 2.52,0.439 3.242,1.184 1.03,1.051 1.49,2.563 1.49,4.906 v 0.68 h -6.484 z m 3.441,-2.279 c 0,-0.832 -0.088,-1.271 -0.351,-1.687 -0.285,-0.438 -0.701,-0.657 -1.293,-0.657 -1.117,0 -1.752,0.876 -1.752,2.432 v 0.044 h 3.396 v -0.132 z"
   id="path41"
   inkscape:connector-curvature="0"
   style="fill:#4d4d4d" />
	<path
   d="m 457.18,328.139 c -0.789,0.461 -1.665,0.701 -2.738,0.701 -3.089,0 -4.886,-2.146 -4.886,-5.783 0,-2.586 0.986,-4.294 2.301,-5.191 0.744,-0.504 1.84,-0.833 2.782,-0.833 0.744,0 1.555,0.175 2.168,0.504 0.417,0.219 0.613,0.372 1.096,0.788 l -1.424,1.928 c -0.592,-0.547 -1.227,-0.876 -1.774,-0.876 -1.314,0 -1.906,1.14 -1.906,3.769 0,1.467 0.197,2.344 0.57,2.826 0.306,0.395 0.81,0.635 1.313,0.635 0.68,0 1.293,-0.285 2.016,-0.92 l 0.176,-0.153 1.336,1.774 c -0.439,0.436 -0.636,0.59 -1.03,0.831 z"
   id="path43"
   inkscape:connector-curvature="0"
   style="fill:#4d4d4d" />
	<path
   d="m 466.074,328.577 v -7.536 c 0,-1.117 -0.307,-1.533 -1.139,-1.533 -0.724,0 -1.665,0.438 -2.323,1.029 v 8.04 h -2.979 v -12.969 c 0,-1.052 -0.087,-2.104 -0.219,-2.563 l 3.002,-0.701 c 0.131,0.613 0.196,1.666 0.196,2.738 v 2.234 c 0,0.352 -0.043,0.811 -0.043,0.942 0.767,-0.723 2.037,-1.204 3.176,-1.204 1.425,0 2.563,0.613 2.914,1.599 0.22,0.636 0.284,1.008 0.284,2.081 v 7.843 h -2.869 z"
   id="path45"
   inkscape:connector-curvature="0"
   style="fill:#4d4d4d" />
	<path
   d="m 477.97,328.577 v -7.296 c 0,-1.27 -0.219,-1.643 -0.985,-1.643 -0.592,0 -1.359,0.395 -2.037,1.008 v 7.931 h -2.936 v -8.128 c 0,-0.963 -0.132,-1.884 -0.395,-2.629 l 2.606,-0.744 c 0.263,0.46 0.416,0.941 0.416,1.402 0.438,-0.307 0.812,-0.57 1.293,-0.833 0.591,-0.307 1.358,-0.481 2.016,-0.481 1.249,0 2.344,0.656 2.694,1.621 0.153,0.416 0.219,0.897 0.219,1.599 v 8.193 h -2.891 z"
   id="path47"
   inkscape:connector-curvature="0"
   style="fill:#4d4d4d" />
	<path
   d="m 485.396,316.09 c -0.985,0 -1.797,-0.811 -1.797,-1.818 0,-1.007 0.832,-1.818 1.84,-1.818 0.986,0 1.775,0.811 1.775,1.818 0,1.007 -0.81,1.818 -1.818,1.818 z m -1.467,12.487 v -11.019 l 2.936,-0.461 v 11.479 h -2.936 z"
   id="path49"
   inkscape:connector-curvature="0"
   style="fill:#4d4d4d" />
	<path
   d="m 489.931,328.577 v -12.64 c 0,-0.986 -0.021,-1.754 -0.196,-2.914 l 2.957,-0.724 c 0.132,0.833 0.176,2.147 0.176,3.638 v 12.64 h -2.937 z m 6.77,0 -3.769,-6.353 2.87,-4.863 h 3.526 l -3.57,4.688 4.403,6.528 h -3.46 z"
   id="path51"
   inkscape:connector-curvature="0"
   style="fill:#4d4d4d" />
	<polygon
   points="369.275,326.967 364.967,322.097 360.654,317.223 365.527,312.914 370.399,308.603 374.71,313.477 379.019,318.35 374.146,322.658 "
   id="polygon53"
   style="fill:#f5c923" />
	<polygon
   points="377.967,284.888 376.729,278.502 375.488,272.118 381.873,270.877 383.112,277.263 389.498,276.023 390.741,282.407 391.979,288.793 385.594,290.034 384.354,283.648 384.354,283.648 "
   id="polygon55"
   style="fill:#0a8938" />
	<polygon
   points="363.913,292.584 357.809,294.826 351.703,297.07 349.459,290.964 355.565,288.72 353.323,282.615 359.428,280.373 365.535,278.13 367.777,284.235 361.672,286.479 361.672,286.479 "
   id="polygon57"
   style="fill:#e0067a" />
	<polygon
   points="399.899,275.099 396.73,269.419 402.411,266.25 405.578,271.93 411.259,268.761 414.428,274.441 408.749,277.612 403.068,280.779 397.39,283.949 394.218,278.269 "
   id="polygon59"
   style="fill:#1f9ad2" />
	<polygon
   points="372.111,294.115 375.302,288.447 380.97,291.638 377.778,297.305 383.446,300.498 389.115,303.689 385.925,309.355 380.257,306.166 374.587,302.974 368.921,299.783 "
   id="polygon61"
   style="fill:#df091d" />
	<polygon
   points="347.201,312.941 344.437,307.053 341.668,301.166 347.557,298.4 350.323,304.29 353.088,310.176 355.852,316.063 358.618,321.949 352.731,324.714 349.966,318.827 "
   id="polygon63"
   style="fill:#2299d1" />
</g>
</svg>