<?xml version="1.0" encoding="UTF-8" standalone="no"?>
<!-- Generator: Adobe Illustrator 15.0.0, SVG Export Plug-In . SVG Version: 6.00 Build 0)  -->

<svg
   xmlns:dc="http://purl.org/dc/elements/1.1/"
   xmlns:cc="http://creativecommons.org/ns#"
   xmlns:rdf="http://www.w3.org/1999/02/22-rdf-syntax-ns#"
   xmlns:svg="http://www.w3.org/2000/svg"
   xmlns="http://www.w3.org/2000/svg"
   xmlns:sodipodi="http://sodipodi.sourceforge.net/DTD/sodipodi-0.dtd"
   xmlns:inkscape="http://www.inkscape.org/namespaces/inkscape"
   version="1.1"
   id="Ebene_1"
   x="0px"
   y="0px"
   width="576.26099"
   height="29.396"
   viewBox="0 0 576.26098 29.395998"
   enable-background="new 0 0 841.89 595.28"
   xml:space="preserve"
   inkscape:version="0.48.4 r9939"
   sodipodi:docname="footer-line.svg"><metadata
   id="metadata33"><rdf:RDF><cc:Work
       rdf:about=""><dc:format>image/svg+xml</dc:format><dc:type
         rdf:resource="http://purl.org/dc/dcmitype/StillImage" /></cc:Work></rdf:RDF></metadata><defs
   id="defs31" /><sodipodi:namedview
   pagecolor="#ffffff"
   bordercolor="#666666"
   borderopacity="1"
   objecttolerance="10"
   gridtolerance="10"
   guidetolerance="10"
   inkscape:pageopacity="0"
   inkscape:pageshadow="2"
   inkscape:window-width="640"
   inkscape:window-height="480"
   id="namedview29"
   showgrid="false"
   fit-margin-top="0"
   fit-margin-left="0"
   fit-margin-right="0"
   fit-margin-bottom="0"
   inkscape:zoom="0.3610923"
   inkscape:cx="288.86201"
   inkscape:cy="-11.394063"
   inkscape:window-x="0"
   inkscape:window-y="0"
   inkscape:window-maximized="0"
   inkscape:current-layer="Ebene_1" />
<polygon
   points="329.35,297.052 323.291,303.528 317.225,310.001 310.751,303.941 304.276,297.877 310.335,291.406 316.398,284.93 322.877,290.99 "
   id="polygon3"
   style="fill:#f5c923"
   transform="translate(-132.083,-283.15901)" />
<polygon
   points="184.716,304.111 184.813,295.242 193.685,295.345 193.685,295.345 193.781,286.471 202.654,286.573 211.521,286.674 211.421,295.543 202.553,295.44 202.454,304.312 193.586,304.214 "
   id="polygon5"
   style="fill:#e0067a"
   transform="translate(-132.083,-283.15901)" />
<polygon
   points="287.866,303.342 279.863,307.165 276.041,299.166 276.041,299.166 268.035,302.989 264.209,294.991 260.383,286.99 268.387,283.159 272.213,291.162 280.215,287.334 284.04,295.335 "
   id="polygon7"
   style="fill:#0a8938"
   transform="translate(-132.083,-283.15901)" />
<polygon
   points="235.295,305.144 228.732,299.176 222.171,293.209 228.14,286.646 234.701,292.613 240.669,286.053 247.232,292.02 241.262,298.58 247.826,304.548 241.857,311.108 "
   id="polygon9"
   style="fill:#1f9ad2"
   transform="translate(-132.083,-283.15901)" />
<polygon
   points="132.083,297.597 139.883,293.373 147.685,289.154 155.484,284.93 159.707,292.733 163.928,300.532 156.127,304.753 151.907,296.952 144.105,301.171 136.301,305.396 "
   id="polygon11"
   style="fill:#df091d"
   transform="translate(-132.083,-283.15901)" />
<polygon
   points="367.672,300.209 359.289,303.099 356.397,294.714 364.784,291.825 373.174,288.937 381.559,286.049 389.942,283.159 392.832,291.545 384.443,294.438 376.059,297.324 "
   id="polygon13"
   style="fill:#1f9ad2"
   transform="translate(-132.083,-283.15901)" />
<polygon
   points="597.592,298.498 591.533,304.975 585.467,311.447 578.994,305.388 572.52,299.323 578.578,292.853 584.641,286.376 591.119,292.437 "
   id="polygon15"
   style="fill:#f5c923"
   transform="translate(-132.083,-283.15901)" />
<polygon
   points="452.959,305.558 453.057,296.688 461.928,296.791 461.928,296.791 462.023,287.917 470.896,288.02 479.764,288.12 479.664,296.989 470.795,296.887 470.696,305.758 461.828,305.66 "
   id="polygon17"
   style="fill:#e0067a"
   transform="translate(-132.083,-283.15901)" />
<polygon
   points="556.109,304.788 548.105,308.611 544.283,300.612 544.283,300.612 536.277,304.436 532.452,296.438 528.626,288.437 536.629,284.605 540.455,292.608 548.457,288.78 552.283,296.781 "
   id="polygon19"
   style="fill:#0a8938"
   transform="translate(-132.083,-283.15901)" />
<polygon
   points="503.537,306.59 496.975,300.622 490.414,294.655 496.383,288.092 502.943,294.06 508.912,287.499 515.475,293.466 509.505,300.026 516.068,305.994 510.1,312.555 "
   id="polygon21"
   style="fill:#1f9ad2"
   transform="translate(-132.083,-283.15901)" />
<polygon
   points="400.326,299.043 408.125,294.819 415.928,290.601 423.727,286.376 427.949,294.18 432.171,301.979 424.37,306.199 420.15,298.398 412.348,302.617 404.543,306.842 "
   id="polygon23"
   style="fill:#df091d"
   transform="translate(-132.083,-283.15901)" />
<polygon
   points="635.914,301.655 627.531,304.545 624.641,296.16 633.027,293.271 641.416,290.383 649.801,287.495 658.186,284.605 661.074,292.991 652.686,295.884 644.301,298.771 "
   id="polygon25"
   style="fill:#1f9ad2"
   transform="translate(-132.083,-283.15901)" />
<polygon
   points="676.499,300.49 684.299,296.267 692.101,292.048 699.9,287.823 704.123,295.627 708.344,303.426 700.543,307.646 696.323,299.846 688.521,304.064 680.717,308.289 "
   id="polygon27"
   style="fill:#df091d"
   transform="translate(-132.083,-283.15901)" />
</svg>